<svg width="60" height="58" viewBox="0 0 60 58" fill="none" xmlns="http://www.w3.org/2000/svg">
<path d="M18.7674 30.0996C18.3551 30.5128 17.8653 30.8405 17.326 31.0638C16.7867 31.2871 16.2086 31.4016 15.6249 31.4008C16.7103 31.4006 17.7713 31.7222 18.6739 32.325C19.5765 32.9278 20.28 33.7848 20.6956 34.7875C21.1111 35.7902 21.2199 36.8936 21.0084 37.9581C20.7968 39.0227 20.2742 40.0006 19.5068 40.7681C18.7394 41.5357 17.7617 42.0584 16.6972 42.2703C15.6327 42.4821 14.5292 42.3735 13.5265 41.9582C12.5237 41.5429 11.6666 40.8396 11.0635 39.9371C10.4605 39.0347 10.1386 37.9737 10.1386 36.8883C10.1485 36.2984 10.0409 35.7124 9.82198 35.1645C9.60307 34.6167 9.27728 34.1178 8.8636 33.6972C8.44992 33.2765 7.95663 32.9424 7.4125 32.7143C6.86836 32.4862 6.28427 32.3688 5.69427 32.3688C5.10427 32.3688 4.52017 32.4862 3.97604 32.7143C3.4319 32.9424 2.93861 33.2765 2.52493 33.6972C2.11126 34.1178 1.78546 34.6167 1.56655 35.1645C1.34764 35.7124 1.24 36.2984 1.24989 36.8883C1.24702 39.6332 2.03006 42.3215 3.50648 44.6355C4.98289 46.9494 7.09094 48.7923 9.58145 49.9463C12.072 51.1003 14.8408 51.5171 17.5606 51.1475C20.2805 50.7778 22.8377 49.6372 24.9299 47.8605C27.0221 46.0837 28.5619 43.7451 29.3672 41.121C30.1726 38.4969 30.2098 35.6972 29.4745 33.0526C28.7392 30.4081 27.2621 28.0293 25.2179 26.1976C23.1737 24.3658 20.6477 23.1576 17.9386 22.7158C18.1675 23.1155 18.446 23.4847 18.7674 23.8146C19.6006 24.6481 20.0687 25.7785 20.0687 26.9571C20.0687 28.1357 19.6006 29.266 18.7674 30.0996Z" fill="#A8AFCC"/>
<path d="M44.375 32.4434C43.605 32.4487 42.8367 32.516 42.0775 32.6446C42.2788 33.6041 42.3818 34.5817 42.385 35.5621C42.3901 38.4746 41.5052 41.3191 39.8487 43.7146L39.8337 43.7409C40.4924 42.7692 41.4452 42.0345 42.5524 41.6445C43.6595 41.2546 44.8625 41.23 45.9846 41.5744C47.1068 41.9188 48.0889 42.614 48.7867 43.5579C49.4844 44.5018 49.8611 45.6446 49.8612 46.8184C49.8513 47.4083 49.959 47.9943 50.1779 48.5421C50.3968 49.09 50.7226 49.5888 51.1363 50.0095C51.55 50.4302 52.0432 50.7643 52.5874 50.9924C53.1315 51.2204 53.7156 51.3379 54.3056 51.3379C54.8956 51.3379 55.4797 51.2204 56.0238 50.9924C56.568 50.7643 57.0613 50.4302 57.4749 50.0095C57.8886 49.5888 58.2144 49.09 58.4333 48.5421C58.6522 47.9943 58.7599 47.4083 58.75 46.8184C58.75 43.0059 57.2355 39.3495 54.5397 36.6537C51.8438 33.9579 48.1875 32.4434 44.375 32.4434Z" fill="#A8AFCC"/>
<path d="M42.0775 32.6449C41.4332 29.5137 39.7614 26.6874 37.3275 24.6149C36.294 23.7356 35.6231 22.5047 35.4442 21.1597C35.2652 19.8147 35.5911 18.4512 36.3587 17.3324C38.0146 14.9371 38.8991 12.093 38.8937 9.1811C38.8999 8.12672 38.53 7.10467 37.8504 6.29847C37.1709 5.49226 36.2262 4.9547 35.186 4.78231C34.1458 4.60992 33.0782 4.81399 32.1749 5.35788C31.2716 5.90177 30.5918 6.74985 30.2575 7.74985C31.1828 8.32329 32.0396 9.0006 32.8112 9.7686C33.6047 10.5574 34.0707 11.617 34.1158 12.735C34.1609 13.853 33.7818 14.9467 33.0545 15.7969C32.3271 16.6471 31.3053 17.191 30.1938 17.3195C29.0824 17.448 27.9634 17.1516 27.0612 16.4899C26.2987 19.142 26.3176 21.9578 27.1159 24.5995C27.9141 27.2411 29.4576 29.5963 31.5612 31.3824C32.5946 32.2616 33.2656 33.4925 33.4445 34.8375C33.6234 36.1825 33.2976 37.5461 32.53 38.6649C32.5137 38.6874 32.5012 38.7111 32.485 38.7336C32.435 38.8074 32.3912 38.8849 32.3425 38.9586C32.1575 39.2424 31.98 39.5299 31.815 39.8261C31.755 39.9349 31.6962 40.0461 31.6387 40.1561C31.4879 40.4436 31.3466 40.7353 31.215 41.0311C31.1725 41.1261 31.1287 41.2211 31.09 41.3174C30.756 42.1254 30.4966 42.9622 30.315 43.8174C30.2962 43.9099 30.28 44.0036 30.2625 44.0961C30.195 44.4486 30.1375 44.8061 30.0987 45.1661C30.0875 45.2636 30.075 45.3611 30.0662 45.4586C30.0237 45.9061 29.9975 46.3574 29.9975 46.8149C29.9876 47.4046 30.0952 47.9904 30.314 48.5382C30.5329 49.0859 30.8586 49.5846 31.2721 50.0051C31.6857 50.4257 32.1789 50.7597 32.7228 50.9877C33.2668 51.2157 33.8508 51.3331 34.4406 51.3331C35.0304 51.3331 35.6144 51.2157 36.1583 50.9877C36.7023 50.7597 37.1955 50.4257 37.609 50.0051C38.0226 49.5846 38.3483 49.0859 38.5671 48.5382C38.786 47.9904 38.8936 47.4046 38.8837 46.8149C38.8873 46.4749 38.922 46.136 38.9875 45.8024C39.0025 45.7211 39.0237 45.6436 39.0425 45.5649C39.1007 45.3124 39.1776 45.0647 39.2725 44.8236C39.3025 44.7474 39.3287 44.6711 39.3625 44.5961C39.4833 44.3214 39.6267 44.0571 39.7912 43.8061C39.8062 43.7836 39.8162 43.7599 39.8312 43.7374L39.8462 43.7111C41.5027 41.3156 42.3876 38.4711 42.3825 35.5586C42.3799 34.5795 42.2777 33.6033 42.0775 32.6449Z" fill="#A8AFCC"/>
<path d="M32.8112 9.77123C30.1085 7.10874 26.4629 5.62262 22.6691 5.63682C18.8753 5.65102 15.2409 7.16441 12.5582 9.84706C9.87559 12.5297 8.36221 16.1641 8.348 19.9579C8.3338 23.7517 9.81992 27.3973 12.4824 30.1C12.6896 30.3062 12.9166 30.4917 13.1599 30.6537C13.2687 30.7262 13.3912 30.7787 13.5062 30.8412C13.6416 30.9222 13.7814 30.9956 13.9249 31.0612C14.0736 31.1162 14.2251 31.1633 14.3787 31.2025C14.5037 31.2387 14.6287 31.2887 14.7537 31.3137C15.6891 31.5015 16.6601 31.3831 17.5231 30.9761C18.386 30.5691 19.0949 29.895 19.545 29.0538C19.9951 28.2125 20.1624 27.2487 20.0221 26.305C19.8818 25.3612 19.4415 24.4877 18.7662 23.8137C17.7373 22.7849 17.1593 21.3894 17.1593 19.9344C17.1593 18.4793 17.7373 17.0839 18.7662 16.055C19.795 15.0261 21.1905 14.4481 22.6455 14.4481C24.1006 14.4481 25.496 15.0261 26.5249 16.055C26.6918 16.2139 26.8707 16.3597 27.0599 16.4912C27.9621 17.153 29.0811 17.4494 30.1925 17.3208C31.304 17.1923 32.3258 16.6485 33.0532 15.7983C33.7805 14.9481 34.1596 13.8543 34.1145 12.7364C34.0694 11.6184 33.6034 10.5588 32.8099 9.76998L32.8112 9.77123Z" fill="#A8AFCC"/>
</svg>
